<svg width="97" height="95" viewBox="0 0 97 95" fill="none" xmlns="http://www.w3.org/2000/svg">
<path d="M48.625 32V51.375M96.25 47.5C96.25 53.6065 95.0181 59.6531 92.6248 65.2948C90.2314 70.9364 86.7233 76.0625 82.301 80.3805C77.8786 84.6984 72.6284 88.1236 66.8503 90.4604C61.0722 92.7972 54.8792 94 48.625 94C42.3708 94 36.1778 92.7972 30.3997 90.4604C24.6216 88.1236 19.3714 84.6984 14.949 80.3805C10.5266 76.0625 7.01862 70.9364 4.62524 65.2948C2.23186 59.6531 1 53.6065 1 47.5C1 35.1674 6.01762 23.34 14.949 14.6195C23.8805 5.89909 35.9941 1 48.625 1C61.2559 1 73.3695 5.89909 82.301 14.6195C91.2324 23.34 96.25 35.1674 96.25 47.5ZM48.625 66.875H48.6673V66.9163H48.625V66.875Z" stroke="#FFF9F9" stroke-width="1.5" stroke-linecap="round" stroke-linejoin="round"/>
</svg>
